<mxfile host="app.diagrams.net" agent="Mozilla/5.0 (X11; Linux x86_64) AppleWebKit/537.36 (KHTML, like Gecko) Chrome/133.0.0.0 Safari/537.36" version="27.2.0">
  <diagram id="C5RBs43oDa-KdzZeNtuy" name="Page-1">
    <mxGraphModel dx="1282" dy="1544" grid="1" gridSize="10" guides="1" tooltips="1" connect="1" arrows="1" fold="1" page="1" pageScale="1" pageWidth="827" pageHeight="1169" math="0" shadow="0">
      <root>
        <mxCell id="WIyWlLk6GJQsqaUBKTNV-0" />
        <mxCell id="WIyWlLk6GJQsqaUBKTNV-1" parent="WIyWlLk6GJQsqaUBKTNV-0" />
        <mxCell id="DsSAlxJH9UJ9JPRe9rcv-0" value="ass1_task3.drawio" style="text;html=1;align=center;verticalAlign=middle;resizable=0;points=[];autosize=1;strokeColor=none;fillColor=none;fontSize=16;" vertex="1" parent="WIyWlLk6GJQsqaUBKTNV-1">
          <mxGeometry x="194" y="81" width="160" height="30" as="geometry" />
        </mxCell>
        <mxCell id="DsSAlxJH9UJ9JPRe9rcv-1" style="edgeStyle=orthogonalEdgeStyle;rounded=0;orthogonalLoop=1;jettySize=auto;html=1;labelBackgroundColor=none;strokeColor=#182E3E;fontColor=default;" edge="1" parent="WIyWlLk6GJQsqaUBKTNV-1" source="DsSAlxJH9UJ9JPRe9rcv-2" target="DsSAlxJH9UJ9JPRe9rcv-4">
          <mxGeometry relative="1" as="geometry" />
        </mxCell>
        <mxCell id="DsSAlxJH9UJ9JPRe9rcv-2" value="&lt;font style=&quot;color: rgb(242, 242, 242);&quot;&gt;Start&lt;/font&gt;" style="ellipse;whiteSpace=wrap;html=1;labelBackgroundColor=none;fillColor=#F5AB50;strokeColor=#909090;fontColor=#1A1A1A;" vertex="1" parent="WIyWlLk6GJQsqaUBKTNV-1">
          <mxGeometry x="187" y="170" width="90" height="50" as="geometry" />
        </mxCell>
        <mxCell id="DsSAlxJH9UJ9JPRe9rcv-3" style="edgeStyle=orthogonalEdgeStyle;rounded=0;orthogonalLoop=1;jettySize=auto;html=1;entryX=0.5;entryY=0;entryDx=0;entryDy=0;labelBackgroundColor=none;strokeColor=#182E3E;fontColor=default;" edge="1" parent="WIyWlLk6GJQsqaUBKTNV-1" source="DsSAlxJH9UJ9JPRe9rcv-4" target="DsSAlxJH9UJ9JPRe9rcv-7">
          <mxGeometry relative="1" as="geometry" />
        </mxCell>
        <mxCell id="DsSAlxJH9UJ9JPRe9rcv-4" value="Enter Units" style="rounded=0;whiteSpace=wrap;html=1;labelBackgroundColor=none;fillColor=#F5AB50;strokeColor=#909090;fontColor=#1A1A1A;" vertex="1" parent="WIyWlLk6GJQsqaUBKTNV-1">
          <mxGeometry x="110" y="250" width="245" height="40" as="geometry" />
        </mxCell>
        <mxCell id="DsSAlxJH9UJ9JPRe9rcv-5" style="edgeStyle=orthogonalEdgeStyle;rounded=0;orthogonalLoop=1;jettySize=auto;html=1;entryX=0;entryY=0.5;entryDx=0;entryDy=0;labelBackgroundColor=none;strokeColor=#182E3E;fontColor=default;" edge="1" parent="WIyWlLk6GJQsqaUBKTNV-1" target="DsSAlxJH9UJ9JPRe9rcv-25">
          <mxGeometry relative="1" as="geometry">
            <mxPoint x="570" y="359.9999999999998" as="sourcePoint" />
          </mxGeometry>
        </mxCell>
        <mxCell id="DsSAlxJH9UJ9JPRe9rcv-48" style="edgeStyle=none;curved=1;rounded=0;orthogonalLoop=1;jettySize=auto;html=1;entryX=0.5;entryY=0;entryDx=0;entryDy=0;fontSize=12;startSize=8;endSize=8;" edge="1" parent="WIyWlLk6GJQsqaUBKTNV-1" source="DsSAlxJH9UJ9JPRe9rcv-7" target="DsSAlxJH9UJ9JPRe9rcv-16">
          <mxGeometry relative="1" as="geometry" />
        </mxCell>
        <mxCell id="DsSAlxJH9UJ9JPRe9rcv-80" style="edgeStyle=none;curved=1;rounded=0;orthogonalLoop=1;jettySize=auto;html=1;entryX=0;entryY=0.5;entryDx=0;entryDy=0;fontSize=12;startSize=8;endSize=8;" edge="1" parent="WIyWlLk6GJQsqaUBKTNV-1" source="DsSAlxJH9UJ9JPRe9rcv-7" target="DsSAlxJH9UJ9JPRe9rcv-66">
          <mxGeometry relative="1" as="geometry" />
        </mxCell>
        <mxCell id="DsSAlxJH9UJ9JPRe9rcv-7" value="20&amp;lt;age&amp;lt;25" style="rhombus;whiteSpace=wrap;html=1;labelBackgroundColor=none;fillColor=#F5AB50;strokeColor=#909090;fontColor=#1A1A1A;" vertex="1" parent="WIyWlLk6GJQsqaUBKTNV-1">
          <mxGeometry x="192" y="320" width="80" height="80" as="geometry" />
        </mxCell>
        <mxCell id="DsSAlxJH9UJ9JPRe9rcv-11" style="edgeStyle=orthogonalEdgeStyle;rounded=0;orthogonalLoop=1;jettySize=auto;html=1;labelBackgroundColor=none;strokeColor=#182E3E;fontColor=default;" edge="1" parent="WIyWlLk6GJQsqaUBKTNV-1" source="DsSAlxJH9UJ9JPRe9rcv-13" target="DsSAlxJH9UJ9JPRe9rcv-19">
          <mxGeometry relative="1" as="geometry">
            <mxPoint x="232" y="825" as="targetPoint" />
          </mxGeometry>
        </mxCell>
        <mxCell id="DsSAlxJH9UJ9JPRe9rcv-12" style="edgeStyle=orthogonalEdgeStyle;rounded=0;orthogonalLoop=1;jettySize=auto;html=1;entryX=0;entryY=0.5;entryDx=0;entryDy=0;labelBackgroundColor=none;strokeColor=#182E3E;fontColor=default;" edge="1" parent="WIyWlLk6GJQsqaUBKTNV-1" target="DsSAlxJH9UJ9JPRe9rcv-31">
          <mxGeometry relative="1" as="geometry">
            <mxPoint x="570" y="759.9999999999998" as="sourcePoint" />
          </mxGeometry>
        </mxCell>
        <mxCell id="DsSAlxJH9UJ9JPRe9rcv-84" style="edgeStyle=none;curved=1;rounded=0;orthogonalLoop=1;jettySize=auto;html=1;entryX=0;entryY=0.5;entryDx=0;entryDy=0;fontSize=12;startSize=8;endSize=8;" edge="1" parent="WIyWlLk6GJQsqaUBKTNV-1" source="DsSAlxJH9UJ9JPRe9rcv-13" target="DsSAlxJH9UJ9JPRe9rcv-68">
          <mxGeometry relative="1" as="geometry" />
        </mxCell>
        <mxCell id="DsSAlxJH9UJ9JPRe9rcv-13" value="35&amp;lt;age&amp;lt;40" style="rhombus;whiteSpace=wrap;html=1;labelBackgroundColor=none;fillColor=#F5AB50;strokeColor=#909090;fontColor=#1A1A1A;" vertex="1" parent="WIyWlLk6GJQsqaUBKTNV-1">
          <mxGeometry x="192" y="720" width="80" height="80" as="geometry" />
        </mxCell>
        <mxCell id="DsSAlxJH9UJ9JPRe9rcv-14" style="edgeStyle=orthogonalEdgeStyle;rounded=0;orthogonalLoop=1;jettySize=auto;html=1;entryX=0.5;entryY=0;entryDx=0;entryDy=0;labelBackgroundColor=none;strokeColor=#182E3E;fontColor=default;" edge="1" parent="WIyWlLk6GJQsqaUBKTNV-1" source="DsSAlxJH9UJ9JPRe9rcv-16" target="DsSAlxJH9UJ9JPRe9rcv-13">
          <mxGeometry relative="1" as="geometry" />
        </mxCell>
        <mxCell id="DsSAlxJH9UJ9JPRe9rcv-15" style="edgeStyle=orthogonalEdgeStyle;rounded=0;orthogonalLoop=1;jettySize=auto;html=1;entryX=0;entryY=0.5;entryDx=0;entryDy=0;labelBackgroundColor=none;strokeColor=#182E3E;fontColor=default;" edge="1" parent="WIyWlLk6GJQsqaUBKTNV-1" target="DsSAlxJH9UJ9JPRe9rcv-29">
          <mxGeometry relative="1" as="geometry">
            <mxPoint x="570" y="559.9999999999998" as="sourcePoint" />
          </mxGeometry>
        </mxCell>
        <mxCell id="DsSAlxJH9UJ9JPRe9rcv-82" style="edgeStyle=none;curved=1;rounded=0;orthogonalLoop=1;jettySize=auto;html=1;entryX=0;entryY=0.5;entryDx=0;entryDy=0;fontSize=12;startSize=8;endSize=8;" edge="1" parent="WIyWlLk6GJQsqaUBKTNV-1" source="DsSAlxJH9UJ9JPRe9rcv-16" target="DsSAlxJH9UJ9JPRe9rcv-70">
          <mxGeometry relative="1" as="geometry" />
        </mxCell>
        <mxCell id="DsSAlxJH9UJ9JPRe9rcv-16" value="25&amp;lt;age&amp;lt;55" style="rhombus;whiteSpace=wrap;html=1;labelBackgroundColor=none;fillColor=#F5AB50;strokeColor=#909090;fontColor=#1A1A1A;" vertex="1" parent="WIyWlLk6GJQsqaUBKTNV-1">
          <mxGeometry x="192" y="520" width="80" height="80" as="geometry" />
        </mxCell>
        <mxCell id="DsSAlxJH9UJ9JPRe9rcv-17" style="edgeStyle=orthogonalEdgeStyle;rounded=0;orthogonalLoop=1;jettySize=auto;html=1;entryX=0.5;entryY=0;entryDx=0;entryDy=0;labelBackgroundColor=none;strokeColor=#182E3E;fontColor=default;" edge="1" parent="WIyWlLk6GJQsqaUBKTNV-1" source="DsSAlxJH9UJ9JPRe9rcv-19" target="DsSAlxJH9UJ9JPRe9rcv-22">
          <mxGeometry relative="1" as="geometry" />
        </mxCell>
        <mxCell id="DsSAlxJH9UJ9JPRe9rcv-18" style="edgeStyle=orthogonalEdgeStyle;rounded=0;orthogonalLoop=1;jettySize=auto;html=1;entryX=0;entryY=0.5;entryDx=0;entryDy=0;labelBackgroundColor=none;strokeColor=#182E3E;fontColor=default;" edge="1" parent="WIyWlLk6GJQsqaUBKTNV-1" target="DsSAlxJH9UJ9JPRe9rcv-33">
          <mxGeometry relative="1" as="geometry">
            <mxPoint x="570" y="969.9999999999998" as="sourcePoint" />
          </mxGeometry>
        </mxCell>
        <mxCell id="DsSAlxJH9UJ9JPRe9rcv-86" style="edgeStyle=none;curved=1;rounded=0;orthogonalLoop=1;jettySize=auto;html=1;fontSize=12;startSize=8;endSize=8;" edge="1" parent="WIyWlLk6GJQsqaUBKTNV-1" source="DsSAlxJH9UJ9JPRe9rcv-19" target="DsSAlxJH9UJ9JPRe9rcv-72">
          <mxGeometry relative="1" as="geometry" />
        </mxCell>
        <mxCell id="DsSAlxJH9UJ9JPRe9rcv-19" value="40&amp;lt;age&amp;lt;50" style="rhombus;whiteSpace=wrap;html=1;labelBackgroundColor=none;fillColor=#F5AB50;strokeColor=#909090;fontColor=#1A1A1A;" vertex="1" parent="WIyWlLk6GJQsqaUBKTNV-1">
          <mxGeometry x="192" y="930" width="80" height="80" as="geometry" />
        </mxCell>
        <mxCell id="DsSAlxJH9UJ9JPRe9rcv-20" style="edgeStyle=orthogonalEdgeStyle;rounded=0;orthogonalLoop=1;jettySize=auto;html=1;entryX=0;entryY=0.5;entryDx=0;entryDy=0;labelBackgroundColor=none;strokeColor=#182E3E;fontColor=default;" edge="1" parent="WIyWlLk6GJQsqaUBKTNV-1" target="DsSAlxJH9UJ9JPRe9rcv-35">
          <mxGeometry relative="1" as="geometry">
            <mxPoint x="570" y="1175" as="sourcePoint" />
          </mxGeometry>
        </mxCell>
        <mxCell id="DsSAlxJH9UJ9JPRe9rcv-21" style="edgeStyle=orthogonalEdgeStyle;rounded=0;orthogonalLoop=1;jettySize=auto;html=1;entryX=0.5;entryY=0;entryDx=0;entryDy=0;labelBackgroundColor=none;strokeColor=#182E3E;fontColor=default;" edge="1" parent="WIyWlLk6GJQsqaUBKTNV-1" source="DsSAlxJH9UJ9JPRe9rcv-22" target="DsSAlxJH9UJ9JPRe9rcv-23">
          <mxGeometry relative="1" as="geometry">
            <mxPoint x="232" y="1250" as="targetPoint" />
          </mxGeometry>
        </mxCell>
        <mxCell id="DsSAlxJH9UJ9JPRe9rcv-88" style="edgeStyle=none;curved=1;rounded=0;orthogonalLoop=1;jettySize=auto;html=1;entryX=0;entryY=0.5;entryDx=0;entryDy=0;fontSize=12;startSize=8;endSize=8;" edge="1" parent="WIyWlLk6GJQsqaUBKTNV-1" source="DsSAlxJH9UJ9JPRe9rcv-22" target="DsSAlxJH9UJ9JPRe9rcv-74">
          <mxGeometry relative="1" as="geometry" />
        </mxCell>
        <mxCell id="DsSAlxJH9UJ9JPRe9rcv-22" value="age&amp;gt;50" style="rhombus;whiteSpace=wrap;html=1;labelBackgroundColor=none;fillColor=#F5AB50;strokeColor=#909090;fontColor=#1A1A1A;" vertex="1" parent="WIyWlLk6GJQsqaUBKTNV-1">
          <mxGeometry x="192" y="1135" width="80" height="80" as="geometry" />
        </mxCell>
        <mxCell id="DsSAlxJH9UJ9JPRe9rcv-23" value="Stop" style="ellipse;whiteSpace=wrap;html=1;labelBackgroundColor=none;fillColor=#F5AB50;strokeColor=#909090;fontColor=#1A1A1A;" vertex="1" parent="WIyWlLk6GJQsqaUBKTNV-1">
          <mxGeometry x="187.5" y="1380" width="90" height="50" as="geometry" />
        </mxCell>
        <mxCell id="DsSAlxJH9UJ9JPRe9rcv-24" style="edgeStyle=orthogonalEdgeStyle;rounded=0;orthogonalLoop=1;jettySize=auto;html=1;strokeColor=#182E3E;fontColor=#1A1A1A;exitX=1;exitY=0.5;exitDx=0;exitDy=0;" edge="1" parent="WIyWlLk6GJQsqaUBKTNV-1" source="DsSAlxJH9UJ9JPRe9rcv-25">
          <mxGeometry relative="1" as="geometry">
            <mxPoint x="280" y="1405" as="targetPoint" />
            <Array as="points">
              <mxPoint x="989" y="360" />
              <mxPoint x="989" y="1405" />
            </Array>
            <mxPoint x="903" y="95" as="sourcePoint" />
          </mxGeometry>
        </mxCell>
        <mxCell id="DsSAlxJH9UJ9JPRe9rcv-25" value="Fit" style="shape=parallelogram;perimeter=parallelogramPerimeter;whiteSpace=wrap;html=1;fixedSize=1;labelBackgroundColor=none;fillColor=#F5AB50;strokeColor=#909090;fontColor=#1A1A1A;" vertex="1" parent="WIyWlLk6GJQsqaUBKTNV-1">
          <mxGeometry x="653" y="335" width="260" height="50" as="geometry" />
        </mxCell>
        <mxCell id="DsSAlxJH9UJ9JPRe9rcv-28" style="edgeStyle=orthogonalEdgeStyle;rounded=0;orthogonalLoop=1;jettySize=auto;html=1;strokeColor=#182E3E;fontColor=#1A1A1A;" edge="1" parent="WIyWlLk6GJQsqaUBKTNV-1" source="DsSAlxJH9UJ9JPRe9rcv-29">
          <mxGeometry relative="1" as="geometry">
            <mxPoint x="988" y="560" as="targetPoint" />
          </mxGeometry>
        </mxCell>
        <mxCell id="DsSAlxJH9UJ9JPRe9rcv-29" value="Fit" style="shape=parallelogram;perimeter=parallelogramPerimeter;whiteSpace=wrap;html=1;fixedSize=1;labelBackgroundColor=none;fillColor=#F5AB50;strokeColor=#909090;fontColor=#1A1A1A;" vertex="1" parent="WIyWlLk6GJQsqaUBKTNV-1">
          <mxGeometry x="653" y="535" width="260" height="50" as="geometry" />
        </mxCell>
        <mxCell id="DsSAlxJH9UJ9JPRe9rcv-30" style="edgeStyle=orthogonalEdgeStyle;rounded=0;orthogonalLoop=1;jettySize=auto;html=1;strokeColor=#182E3E;fontColor=#1A1A1A;" edge="1" parent="WIyWlLk6GJQsqaUBKTNV-1" source="DsSAlxJH9UJ9JPRe9rcv-31">
          <mxGeometry relative="1" as="geometry">
            <mxPoint x="988" y="760" as="targetPoint" />
          </mxGeometry>
        </mxCell>
        <mxCell id="DsSAlxJH9UJ9JPRe9rcv-31" value="Fit" style="shape=parallelogram;perimeter=parallelogramPerimeter;whiteSpace=wrap;html=1;fixedSize=1;labelBackgroundColor=none;fillColor=#F5AB50;strokeColor=#909090;fontColor=#1A1A1A;" vertex="1" parent="WIyWlLk6GJQsqaUBKTNV-1">
          <mxGeometry x="653" y="735" width="260" height="50" as="geometry" />
        </mxCell>
        <mxCell id="DsSAlxJH9UJ9JPRe9rcv-32" style="edgeStyle=orthogonalEdgeStyle;rounded=0;orthogonalLoop=1;jettySize=auto;html=1;strokeColor=#182E3E;fontColor=#1A1A1A;" edge="1" parent="WIyWlLk6GJQsqaUBKTNV-1" source="DsSAlxJH9UJ9JPRe9rcv-33">
          <mxGeometry relative="1" as="geometry">
            <mxPoint x="988" y="970" as="targetPoint" />
          </mxGeometry>
        </mxCell>
        <mxCell id="DsSAlxJH9UJ9JPRe9rcv-33" value="Fit" style="shape=parallelogram;perimeter=parallelogramPerimeter;whiteSpace=wrap;html=1;fixedSize=1;labelBackgroundColor=none;fillColor=#F5AB50;strokeColor=#909090;fontColor=#1A1A1A;" vertex="1" parent="WIyWlLk6GJQsqaUBKTNV-1">
          <mxGeometry x="653" y="945" width="260" height="50" as="geometry" />
        </mxCell>
        <mxCell id="DsSAlxJH9UJ9JPRe9rcv-34" style="edgeStyle=orthogonalEdgeStyle;rounded=0;orthogonalLoop=1;jettySize=auto;html=1;strokeColor=#182E3E;fontColor=#1A1A1A;" edge="1" parent="WIyWlLk6GJQsqaUBKTNV-1" source="DsSAlxJH9UJ9JPRe9rcv-35">
          <mxGeometry relative="1" as="geometry">
            <mxPoint x="988" y="1175" as="targetPoint" />
          </mxGeometry>
        </mxCell>
        <mxCell id="DsSAlxJH9UJ9JPRe9rcv-35" value="Fit" style="shape=parallelogram;perimeter=parallelogramPerimeter;whiteSpace=wrap;html=1;fixedSize=1;labelBackgroundColor=none;fillColor=#F5AB50;strokeColor=#909090;fontColor=#1A1A1A;" vertex="1" parent="WIyWlLk6GJQsqaUBKTNV-1">
          <mxGeometry x="653" y="1150" width="260" height="50" as="geometry" />
        </mxCell>
        <mxCell id="DsSAlxJH9UJ9JPRe9rcv-36" value="Yes" style="text;html=1;align=center;verticalAlign=middle;resizable=0;points=[];autosize=1;strokeColor=none;fillColor=none;fontColor=#1A1A1A;" vertex="1" parent="WIyWlLk6GJQsqaUBKTNV-1">
          <mxGeometry x="588" y="335" width="40" height="30" as="geometry" />
        </mxCell>
        <mxCell id="DsSAlxJH9UJ9JPRe9rcv-38" value="Yes" style="text;html=1;align=center;verticalAlign=middle;resizable=0;points=[];autosize=1;strokeColor=none;fillColor=none;fontColor=#1A1A1A;" vertex="1" parent="WIyWlLk6GJQsqaUBKTNV-1">
          <mxGeometry x="588" y="735" width="40" height="30" as="geometry" />
        </mxCell>
        <mxCell id="DsSAlxJH9UJ9JPRe9rcv-39" value="Yes" style="text;html=1;align=center;verticalAlign=middle;resizable=0;points=[];autosize=1;strokeColor=none;fillColor=none;fontColor=#1A1A1A;" vertex="1" parent="WIyWlLk6GJQsqaUBKTNV-1">
          <mxGeometry x="588" y="535" width="40" height="30" as="geometry" />
        </mxCell>
        <mxCell id="DsSAlxJH9UJ9JPRe9rcv-40" value="Yes" style="text;html=1;align=center;verticalAlign=middle;resizable=0;points=[];autosize=1;strokeColor=none;fillColor=none;fontColor=#1A1A1A;" vertex="1" parent="WIyWlLk6GJQsqaUBKTNV-1">
          <mxGeometry x="588" y="1150" width="40" height="30" as="geometry" />
        </mxCell>
        <mxCell id="DsSAlxJH9UJ9JPRe9rcv-41" value="Yes" style="text;html=1;align=center;verticalAlign=middle;resizable=0;points=[];autosize=1;strokeColor=none;fillColor=none;fontColor=#1A1A1A;" vertex="1" parent="WIyWlLk6GJQsqaUBKTNV-1">
          <mxGeometry x="588" y="945" width="40" height="30" as="geometry" />
        </mxCell>
        <mxCell id="DsSAlxJH9UJ9JPRe9rcv-42" value="No" style="text;html=1;align=center;verticalAlign=middle;resizable=0;points=[];autosize=1;strokeColor=none;fillColor=none;fontColor=#1A1A1A;" vertex="1" parent="WIyWlLk6GJQsqaUBKTNV-1">
          <mxGeometry x="230" y="440" width="40" height="30" as="geometry" />
        </mxCell>
        <mxCell id="DsSAlxJH9UJ9JPRe9rcv-44" value="No" style="text;html=1;align=center;verticalAlign=middle;resizable=0;points=[];autosize=1;strokeColor=none;fillColor=none;fontColor=#1A1A1A;" vertex="1" parent="WIyWlLk6GJQsqaUBKTNV-1">
          <mxGeometry x="230" y="640" width="40" height="30" as="geometry" />
        </mxCell>
        <mxCell id="DsSAlxJH9UJ9JPRe9rcv-45" value="No" style="text;html=1;align=center;verticalAlign=middle;resizable=0;points=[];autosize=1;strokeColor=none;fillColor=none;fontColor=#1A1A1A;" vertex="1" parent="WIyWlLk6GJQsqaUBKTNV-1">
          <mxGeometry x="230" y="850" width="40" height="30" as="geometry" />
        </mxCell>
        <mxCell id="DsSAlxJH9UJ9JPRe9rcv-46" value="No" style="text;html=1;align=center;verticalAlign=middle;resizable=0;points=[];autosize=1;strokeColor=none;fillColor=none;fontColor=#1A1A1A;" vertex="1" parent="WIyWlLk6GJQsqaUBKTNV-1">
          <mxGeometry x="233.5" y="1060" width="40" height="30" as="geometry" />
        </mxCell>
        <mxCell id="DsSAlxJH9UJ9JPRe9rcv-49" value="No" style="text;html=1;align=center;verticalAlign=middle;resizable=0;points=[];autosize=1;strokeColor=none;fillColor=none;fontColor=#1A1A1A;" vertex="1" parent="WIyWlLk6GJQsqaUBKTNV-1">
          <mxGeometry x="233.5" y="1265" width="40" height="30" as="geometry" />
        </mxCell>
        <mxCell id="DsSAlxJH9UJ9JPRe9rcv-51" value="piz&amp;lt;3" style="rhombus;whiteSpace=wrap;html=1;labelBackgroundColor=none;fillColor=#F5AB50;strokeColor=#909090;fontColor=#1A1A1A;" vertex="1" parent="WIyWlLk6GJQsqaUBKTNV-1">
          <mxGeometry x="490" y="320" width="80" height="80" as="geometry" />
        </mxCell>
        <mxCell id="DsSAlxJH9UJ9JPRe9rcv-53" value="piz==0" style="rhombus;whiteSpace=wrap;html=1;labelBackgroundColor=none;fillColor=#F5AB50;strokeColor=#909090;fontColor=#1A1A1A;" vertex="1" parent="WIyWlLk6GJQsqaUBKTNV-1">
          <mxGeometry x="490" y="720" width="80" height="80" as="geometry" />
        </mxCell>
        <mxCell id="DsSAlxJH9UJ9JPRe9rcv-55" value="piz&amp;lt;7" style="rhombus;whiteSpace=wrap;html=1;labelBackgroundColor=none;fillColor=#F5AB50;strokeColor=#909090;fontColor=#1A1A1A;" vertex="1" parent="WIyWlLk6GJQsqaUBKTNV-1">
          <mxGeometry x="490" y="520" width="80" height="80" as="geometry" />
        </mxCell>
        <mxCell id="DsSAlxJH9UJ9JPRe9rcv-57" value="piz&amp;lt;4" style="rhombus;whiteSpace=wrap;html=1;labelBackgroundColor=none;fillColor=#F5AB50;strokeColor=#909090;fontColor=#1A1A1A;" vertex="1" parent="WIyWlLk6GJQsqaUBKTNV-1">
          <mxGeometry x="490" y="930" width="80" height="80" as="geometry" />
        </mxCell>
        <mxCell id="DsSAlxJH9UJ9JPRe9rcv-59" value="piz==0" style="rhombus;whiteSpace=wrap;html=1;labelBackgroundColor=none;fillColor=#F5AB50;strokeColor=#909090;fontColor=#1A1A1A;" vertex="1" parent="WIyWlLk6GJQsqaUBKTNV-1">
          <mxGeometry x="490" y="1135" width="80" height="80" as="geometry" />
        </mxCell>
        <mxCell id="DsSAlxJH9UJ9JPRe9rcv-81" style="edgeStyle=none;curved=1;rounded=0;orthogonalLoop=1;jettySize=auto;html=1;entryX=0;entryY=0.5;entryDx=0;entryDy=0;fontSize=12;startSize=8;endSize=8;" edge="1" parent="WIyWlLk6GJQsqaUBKTNV-1" source="DsSAlxJH9UJ9JPRe9rcv-66" target="DsSAlxJH9UJ9JPRe9rcv-51">
          <mxGeometry relative="1" as="geometry" />
        </mxCell>
        <mxCell id="DsSAlxJH9UJ9JPRe9rcv-66" value="exe=N" style="rhombus;whiteSpace=wrap;html=1;labelBackgroundColor=none;fillColor=#F5AB50;strokeColor=#909090;fontColor=#1A1A1A;" vertex="1" parent="WIyWlLk6GJQsqaUBKTNV-1">
          <mxGeometry x="340" y="320" width="80" height="80" as="geometry" />
        </mxCell>
        <mxCell id="DsSAlxJH9UJ9JPRe9rcv-85" style="edgeStyle=none;curved=1;rounded=0;orthogonalLoop=1;jettySize=auto;html=1;entryX=0;entryY=0.5;entryDx=0;entryDy=0;fontSize=12;startSize=8;endSize=8;" edge="1" parent="WIyWlLk6GJQsqaUBKTNV-1" source="DsSAlxJH9UJ9JPRe9rcv-68" target="DsSAlxJH9UJ9JPRe9rcv-53">
          <mxGeometry relative="1" as="geometry" />
        </mxCell>
        <mxCell id="DsSAlxJH9UJ9JPRe9rcv-68" value="exe=N" style="rhombus;whiteSpace=wrap;html=1;labelBackgroundColor=none;fillColor=#F5AB50;strokeColor=#909090;fontColor=#1A1A1A;" vertex="1" parent="WIyWlLk6GJQsqaUBKTNV-1">
          <mxGeometry x="340" y="720" width="80" height="80" as="geometry" />
        </mxCell>
        <mxCell id="DsSAlxJH9UJ9JPRe9rcv-83" style="edgeStyle=none;curved=1;rounded=0;orthogonalLoop=1;jettySize=auto;html=1;entryX=0;entryY=0.5;entryDx=0;entryDy=0;fontSize=12;startSize=8;endSize=8;" edge="1" parent="WIyWlLk6GJQsqaUBKTNV-1" source="DsSAlxJH9UJ9JPRe9rcv-70" target="DsSAlxJH9UJ9JPRe9rcv-55">
          <mxGeometry relative="1" as="geometry" />
        </mxCell>
        <mxCell id="DsSAlxJH9UJ9JPRe9rcv-70" value="exe=Y" style="rhombus;whiteSpace=wrap;html=1;labelBackgroundColor=none;fillColor=#F5AB50;strokeColor=#909090;fontColor=#1A1A1A;" vertex="1" parent="WIyWlLk6GJQsqaUBKTNV-1">
          <mxGeometry x="340" y="520" width="80" height="80" as="geometry" />
        </mxCell>
        <mxCell id="DsSAlxJH9UJ9JPRe9rcv-87" style="edgeStyle=none;curved=1;rounded=0;orthogonalLoop=1;jettySize=auto;html=1;entryX=0;entryY=0.5;entryDx=0;entryDy=0;fontSize=12;startSize=8;endSize=8;" edge="1" parent="WIyWlLk6GJQsqaUBKTNV-1" source="DsSAlxJH9UJ9JPRe9rcv-72" target="DsSAlxJH9UJ9JPRe9rcv-57">
          <mxGeometry relative="1" as="geometry" />
        </mxCell>
        <mxCell id="DsSAlxJH9UJ9JPRe9rcv-72" value="exe=Y" style="rhombus;whiteSpace=wrap;html=1;labelBackgroundColor=none;fillColor=#F5AB50;strokeColor=#909090;fontColor=#1A1A1A;" vertex="1" parent="WIyWlLk6GJQsqaUBKTNV-1">
          <mxGeometry x="340" y="930" width="80" height="80" as="geometry" />
        </mxCell>
        <mxCell id="DsSAlxJH9UJ9JPRe9rcv-89" style="edgeStyle=none;curved=1;rounded=0;orthogonalLoop=1;jettySize=auto;html=1;entryX=0;entryY=0.5;entryDx=0;entryDy=0;fontSize=12;startSize=8;endSize=8;" edge="1" parent="WIyWlLk6GJQsqaUBKTNV-1" source="DsSAlxJH9UJ9JPRe9rcv-74" target="DsSAlxJH9UJ9JPRe9rcv-59">
          <mxGeometry relative="1" as="geometry" />
        </mxCell>
        <mxCell id="DsSAlxJH9UJ9JPRe9rcv-74" value="exe=Y" style="rhombus;whiteSpace=wrap;html=1;labelBackgroundColor=none;fillColor=#F5AB50;strokeColor=#909090;fontColor=#1A1A1A;" vertex="1" parent="WIyWlLk6GJQsqaUBKTNV-1">
          <mxGeometry x="340" y="1135" width="80" height="80" as="geometry" />
        </mxCell>
        <mxCell id="DsSAlxJH9UJ9JPRe9rcv-90" value="Yes" style="text;html=1;align=center;verticalAlign=middle;resizable=0;points=[];autosize=1;strokeColor=none;fillColor=none;fontColor=#1A1A1A;" vertex="1" parent="WIyWlLk6GJQsqaUBKTNV-1">
          <mxGeometry x="430" y="335" width="40" height="30" as="geometry" />
        </mxCell>
        <mxCell id="DsSAlxJH9UJ9JPRe9rcv-91" value="Yes" style="text;html=1;align=center;verticalAlign=middle;resizable=0;points=[];autosize=1;strokeColor=none;fillColor=none;fontColor=#1A1A1A;" vertex="1" parent="WIyWlLk6GJQsqaUBKTNV-1">
          <mxGeometry x="430" y="535" width="40" height="30" as="geometry" />
        </mxCell>
        <mxCell id="DsSAlxJH9UJ9JPRe9rcv-92" value="Yes" style="text;html=1;align=center;verticalAlign=middle;resizable=0;points=[];autosize=1;strokeColor=none;fillColor=none;fontColor=#1A1A1A;" vertex="1" parent="WIyWlLk6GJQsqaUBKTNV-1">
          <mxGeometry x="430" y="735" width="40" height="30" as="geometry" />
        </mxCell>
        <mxCell id="DsSAlxJH9UJ9JPRe9rcv-93" value="Yes" style="text;html=1;align=center;verticalAlign=middle;resizable=0;points=[];autosize=1;strokeColor=none;fillColor=none;fontColor=#1A1A1A;" vertex="1" parent="WIyWlLk6GJQsqaUBKTNV-1">
          <mxGeometry x="430" y="945" width="40" height="30" as="geometry" />
        </mxCell>
        <mxCell id="DsSAlxJH9UJ9JPRe9rcv-94" value="Yes" style="text;html=1;align=center;verticalAlign=middle;resizable=0;points=[];autosize=1;strokeColor=none;fillColor=none;fontColor=#1A1A1A;" vertex="1" parent="WIyWlLk6GJQsqaUBKTNV-1">
          <mxGeometry x="430" y="1150" width="40" height="30" as="geometry" />
        </mxCell>
        <mxCell id="DsSAlxJH9UJ9JPRe9rcv-95" value="Yes" style="text;html=1;align=center;verticalAlign=middle;resizable=0;points=[];autosize=1;strokeColor=none;fillColor=none;fontColor=#1A1A1A;" vertex="1" parent="WIyWlLk6GJQsqaUBKTNV-1">
          <mxGeometry x="280" y="335" width="40" height="30" as="geometry" />
        </mxCell>
        <mxCell id="DsSAlxJH9UJ9JPRe9rcv-96" value="Yes" style="text;html=1;align=center;verticalAlign=middle;resizable=0;points=[];autosize=1;strokeColor=none;fillColor=none;fontColor=#1A1A1A;" vertex="1" parent="WIyWlLk6GJQsqaUBKTNV-1">
          <mxGeometry x="280" y="535" width="40" height="30" as="geometry" />
        </mxCell>
        <mxCell id="DsSAlxJH9UJ9JPRe9rcv-97" value="Yes" style="text;html=1;align=center;verticalAlign=middle;resizable=0;points=[];autosize=1;strokeColor=none;fillColor=none;fontColor=#1A1A1A;" vertex="1" parent="WIyWlLk6GJQsqaUBKTNV-1">
          <mxGeometry x="280" y="735" width="40" height="30" as="geometry" />
        </mxCell>
        <mxCell id="DsSAlxJH9UJ9JPRe9rcv-98" value="Yes" style="text;html=1;align=center;verticalAlign=middle;resizable=0;points=[];autosize=1;strokeColor=none;fillColor=none;fontColor=#1A1A1A;" vertex="1" parent="WIyWlLk6GJQsqaUBKTNV-1">
          <mxGeometry x="280" y="945" width="40" height="30" as="geometry" />
        </mxCell>
        <mxCell id="DsSAlxJH9UJ9JPRe9rcv-99" value="Yes" style="text;html=1;align=center;verticalAlign=middle;resizable=0;points=[];autosize=1;strokeColor=none;fillColor=none;fontColor=#1A1A1A;" vertex="1" parent="WIyWlLk6GJQsqaUBKTNV-1">
          <mxGeometry x="280" y="1150" width="40" height="30" as="geometry" />
        </mxCell>
        <mxCell id="DsSAlxJH9UJ9JPRe9rcv-121" style="edgeStyle=none;curved=1;rounded=0;orthogonalLoop=1;jettySize=auto;html=1;fontSize=12;startSize=8;endSize=8;" edge="1" parent="WIyWlLk6GJQsqaUBKTNV-1" source="DsSAlxJH9UJ9JPRe9rcv-101">
          <mxGeometry relative="1" as="geometry">
            <mxPoint x="990" y="465" as="targetPoint" />
          </mxGeometry>
        </mxCell>
        <mxCell id="DsSAlxJH9UJ9JPRe9rcv-101" value="Unfit" style="shape=parallelogram;perimeter=parallelogramPerimeter;whiteSpace=wrap;html=1;fixedSize=1;labelBackgroundColor=none;fillColor=#F5AB50;strokeColor=#909090;fontColor=#1A1A1A;" vertex="1" parent="WIyWlLk6GJQsqaUBKTNV-1">
          <mxGeometry x="328" y="440" width="260" height="50" as="geometry" />
        </mxCell>
        <mxCell id="DsSAlxJH9UJ9JPRe9rcv-122" style="edgeStyle=none;curved=1;rounded=0;orthogonalLoop=1;jettySize=auto;html=1;fontSize=12;startSize=8;endSize=8;" edge="1" parent="WIyWlLk6GJQsqaUBKTNV-1" source="DsSAlxJH9UJ9JPRe9rcv-102">
          <mxGeometry relative="1" as="geometry">
            <mxPoint x="990" y="665" as="targetPoint" />
          </mxGeometry>
        </mxCell>
        <mxCell id="DsSAlxJH9UJ9JPRe9rcv-102" value="Unfit" style="shape=parallelogram;perimeter=parallelogramPerimeter;whiteSpace=wrap;html=1;fixedSize=1;labelBackgroundColor=none;fillColor=#F5AB50;strokeColor=#909090;fontColor=#1A1A1A;" vertex="1" parent="WIyWlLk6GJQsqaUBKTNV-1">
          <mxGeometry x="328" y="640" width="260" height="50" as="geometry" />
        </mxCell>
        <mxCell id="DsSAlxJH9UJ9JPRe9rcv-123" style="edgeStyle=none;curved=1;rounded=0;orthogonalLoop=1;jettySize=auto;html=1;fontSize=12;startSize=8;endSize=8;" edge="1" parent="WIyWlLk6GJQsqaUBKTNV-1" source="DsSAlxJH9UJ9JPRe9rcv-103">
          <mxGeometry relative="1" as="geometry">
            <mxPoint x="990" y="865" as="targetPoint" />
          </mxGeometry>
        </mxCell>
        <mxCell id="DsSAlxJH9UJ9JPRe9rcv-103" value="Unfit" style="shape=parallelogram;perimeter=parallelogramPerimeter;whiteSpace=wrap;html=1;fixedSize=1;labelBackgroundColor=none;fillColor=#F5AB50;strokeColor=#909090;fontColor=#1A1A1A;" vertex="1" parent="WIyWlLk6GJQsqaUBKTNV-1">
          <mxGeometry x="328" y="840" width="260" height="50" as="geometry" />
        </mxCell>
        <mxCell id="DsSAlxJH9UJ9JPRe9rcv-124" style="edgeStyle=none;curved=1;rounded=0;orthogonalLoop=1;jettySize=auto;html=1;fontSize=12;startSize=8;endSize=8;" edge="1" parent="WIyWlLk6GJQsqaUBKTNV-1" source="DsSAlxJH9UJ9JPRe9rcv-104">
          <mxGeometry relative="1" as="geometry">
            <mxPoint x="980" y="1075" as="targetPoint" />
          </mxGeometry>
        </mxCell>
        <mxCell id="DsSAlxJH9UJ9JPRe9rcv-104" value="Unfit" style="shape=parallelogram;perimeter=parallelogramPerimeter;whiteSpace=wrap;html=1;fixedSize=1;labelBackgroundColor=none;fillColor=#F5AB50;strokeColor=#909090;fontColor=#1A1A1A;" vertex="1" parent="WIyWlLk6GJQsqaUBKTNV-1">
          <mxGeometry x="328" y="1050" width="260" height="50" as="geometry" />
        </mxCell>
        <mxCell id="DsSAlxJH9UJ9JPRe9rcv-125" style="edgeStyle=none;curved=1;rounded=0;orthogonalLoop=1;jettySize=auto;html=1;fontSize=12;startSize=8;endSize=8;" edge="1" parent="WIyWlLk6GJQsqaUBKTNV-1" source="DsSAlxJH9UJ9JPRe9rcv-105">
          <mxGeometry relative="1" as="geometry">
            <mxPoint x="990" y="1280" as="targetPoint" />
          </mxGeometry>
        </mxCell>
        <mxCell id="DsSAlxJH9UJ9JPRe9rcv-105" value="Unfit" style="shape=parallelogram;perimeter=parallelogramPerimeter;whiteSpace=wrap;html=1;fixedSize=1;labelBackgroundColor=none;fillColor=#F5AB50;strokeColor=#909090;fontColor=#1A1A1A;" vertex="1" parent="WIyWlLk6GJQsqaUBKTNV-1">
          <mxGeometry x="328" y="1255" width="260" height="50" as="geometry" />
        </mxCell>
        <mxCell id="DsSAlxJH9UJ9JPRe9rcv-111" style="edgeStyle=none;curved=1;rounded=0;orthogonalLoop=1;jettySize=auto;html=1;entryX=0.2;entryY=0;entryDx=0;entryDy=0;entryPerimeter=0;fontSize=12;startSize=8;endSize=8;" edge="1" parent="WIyWlLk6GJQsqaUBKTNV-1" source="DsSAlxJH9UJ9JPRe9rcv-66" target="DsSAlxJH9UJ9JPRe9rcv-101">
          <mxGeometry relative="1" as="geometry" />
        </mxCell>
        <mxCell id="DsSAlxJH9UJ9JPRe9rcv-112" style="edgeStyle=none;curved=1;rounded=0;orthogonalLoop=1;jettySize=auto;html=1;entryX=0.776;entryY=0.087;entryDx=0;entryDy=0;entryPerimeter=0;fontSize=12;startSize=8;endSize=8;" edge="1" parent="WIyWlLk6GJQsqaUBKTNV-1" source="DsSAlxJH9UJ9JPRe9rcv-51" target="DsSAlxJH9UJ9JPRe9rcv-101">
          <mxGeometry relative="1" as="geometry" />
        </mxCell>
        <mxCell id="DsSAlxJH9UJ9JPRe9rcv-113" style="edgeStyle=none;curved=1;rounded=0;orthogonalLoop=1;jettySize=auto;html=1;entryX=0.201;entryY=0.057;entryDx=0;entryDy=0;entryPerimeter=0;fontSize=12;startSize=8;endSize=8;" edge="1" parent="WIyWlLk6GJQsqaUBKTNV-1" source="DsSAlxJH9UJ9JPRe9rcv-70" target="DsSAlxJH9UJ9JPRe9rcv-102">
          <mxGeometry relative="1" as="geometry" />
        </mxCell>
        <mxCell id="DsSAlxJH9UJ9JPRe9rcv-114" style="edgeStyle=none;curved=1;rounded=0;orthogonalLoop=1;jettySize=auto;html=1;entryX=0.779;entryY=-0.002;entryDx=0;entryDy=0;entryPerimeter=0;fontSize=12;startSize=8;endSize=8;" edge="1" parent="WIyWlLk6GJQsqaUBKTNV-1" source="DsSAlxJH9UJ9JPRe9rcv-55" target="DsSAlxJH9UJ9JPRe9rcv-102">
          <mxGeometry relative="1" as="geometry" />
        </mxCell>
        <mxCell id="DsSAlxJH9UJ9JPRe9rcv-115" style="edgeStyle=none;curved=1;rounded=0;orthogonalLoop=1;jettySize=auto;html=1;entryX=0.195;entryY=0.042;entryDx=0;entryDy=0;entryPerimeter=0;fontSize=12;startSize=8;endSize=8;" edge="1" parent="WIyWlLk6GJQsqaUBKTNV-1" source="DsSAlxJH9UJ9JPRe9rcv-68" target="DsSAlxJH9UJ9JPRe9rcv-103">
          <mxGeometry relative="1" as="geometry" />
        </mxCell>
        <mxCell id="DsSAlxJH9UJ9JPRe9rcv-116" style="edgeStyle=none;curved=1;rounded=0;orthogonalLoop=1;jettySize=auto;html=1;entryX=0.774;entryY=0.057;entryDx=0;entryDy=0;entryPerimeter=0;fontSize=12;startSize=8;endSize=8;" edge="1" parent="WIyWlLk6GJQsqaUBKTNV-1" source="DsSAlxJH9UJ9JPRe9rcv-53" target="DsSAlxJH9UJ9JPRe9rcv-103">
          <mxGeometry relative="1" as="geometry" />
        </mxCell>
        <mxCell id="DsSAlxJH9UJ9JPRe9rcv-117" style="edgeStyle=none;curved=1;rounded=0;orthogonalLoop=1;jettySize=auto;html=1;entryX=0.201;entryY=-0.054;entryDx=0;entryDy=0;entryPerimeter=0;fontSize=12;startSize=8;endSize=8;" edge="1" parent="WIyWlLk6GJQsqaUBKTNV-1" source="DsSAlxJH9UJ9JPRe9rcv-72" target="DsSAlxJH9UJ9JPRe9rcv-104">
          <mxGeometry relative="1" as="geometry" />
        </mxCell>
        <mxCell id="DsSAlxJH9UJ9JPRe9rcv-118" style="edgeStyle=none;curved=1;rounded=0;orthogonalLoop=1;jettySize=auto;html=1;entryX=0.774;entryY=-0.024;entryDx=0;entryDy=0;entryPerimeter=0;fontSize=12;startSize=8;endSize=8;" edge="1" parent="WIyWlLk6GJQsqaUBKTNV-1" source="DsSAlxJH9UJ9JPRe9rcv-57" target="DsSAlxJH9UJ9JPRe9rcv-104">
          <mxGeometry relative="1" as="geometry" />
        </mxCell>
        <mxCell id="DsSAlxJH9UJ9JPRe9rcv-119" style="edgeStyle=none;curved=1;rounded=0;orthogonalLoop=1;jettySize=auto;html=1;entryX=0.2;entryY=0.1;entryDx=0;entryDy=0;entryPerimeter=0;fontSize=12;startSize=8;endSize=8;" edge="1" parent="WIyWlLk6GJQsqaUBKTNV-1" source="DsSAlxJH9UJ9JPRe9rcv-74" target="DsSAlxJH9UJ9JPRe9rcv-105">
          <mxGeometry relative="1" as="geometry" />
        </mxCell>
        <mxCell id="DsSAlxJH9UJ9JPRe9rcv-120" style="edgeStyle=none;curved=1;rounded=0;orthogonalLoop=1;jettySize=auto;html=1;entryX=0.774;entryY=0.024;entryDx=0;entryDy=0;entryPerimeter=0;fontSize=12;startSize=8;endSize=8;" edge="1" parent="WIyWlLk6GJQsqaUBKTNV-1" source="DsSAlxJH9UJ9JPRe9rcv-59" target="DsSAlxJH9UJ9JPRe9rcv-105">
          <mxGeometry relative="1" as="geometry" />
        </mxCell>
        <mxCell id="DsSAlxJH9UJ9JPRe9rcv-130" value="No" style="text;html=1;align=center;verticalAlign=middle;resizable=0;points=[];autosize=1;strokeColor=none;fillColor=none;fontColor=#1A1A1A;" vertex="1" parent="WIyWlLk6GJQsqaUBKTNV-1">
          <mxGeometry x="380" y="1220" width="40" height="30" as="geometry" />
        </mxCell>
        <mxCell id="DsSAlxJH9UJ9JPRe9rcv-131" value="No" style="text;html=1;align=center;verticalAlign=middle;resizable=0;points=[];autosize=1;strokeColor=none;fillColor=none;fontColor=#1A1A1A;" vertex="1" parent="WIyWlLk6GJQsqaUBKTNV-1">
          <mxGeometry x="530" y="1220" width="40" height="30" as="geometry" />
        </mxCell>
        <mxCell id="DsSAlxJH9UJ9JPRe9rcv-132" value="No" style="text;html=1;align=center;verticalAlign=middle;resizable=0;points=[];autosize=1;strokeColor=none;fillColor=none;fontColor=#1A1A1A;" vertex="1" parent="WIyWlLk6GJQsqaUBKTNV-1">
          <mxGeometry x="530" y="1010" width="40" height="30" as="geometry" />
        </mxCell>
        <mxCell id="DsSAlxJH9UJ9JPRe9rcv-133" value="No" style="text;html=1;align=center;verticalAlign=middle;resizable=0;points=[];autosize=1;strokeColor=none;fillColor=none;fontColor=#1A1A1A;" vertex="1" parent="WIyWlLk6GJQsqaUBKTNV-1">
          <mxGeometry x="380" y="1010" width="40" height="30" as="geometry" />
        </mxCell>
        <mxCell id="DsSAlxJH9UJ9JPRe9rcv-134" value="No" style="text;html=1;align=center;verticalAlign=middle;resizable=0;points=[];autosize=1;strokeColor=none;fillColor=none;fontColor=#1A1A1A;" vertex="1" parent="WIyWlLk6GJQsqaUBKTNV-1">
          <mxGeometry x="530" y="800" width="40" height="30" as="geometry" />
        </mxCell>
        <mxCell id="DsSAlxJH9UJ9JPRe9rcv-135" value="No" style="text;html=1;align=center;verticalAlign=middle;resizable=0;points=[];autosize=1;strokeColor=none;fillColor=none;fontColor=#1A1A1A;" vertex="1" parent="WIyWlLk6GJQsqaUBKTNV-1">
          <mxGeometry x="380" y="800" width="40" height="30" as="geometry" />
        </mxCell>
        <mxCell id="DsSAlxJH9UJ9JPRe9rcv-136" value="No" style="text;html=1;align=center;verticalAlign=middle;resizable=0;points=[];autosize=1;strokeColor=none;fillColor=none;fontColor=#1A1A1A;" vertex="1" parent="WIyWlLk6GJQsqaUBKTNV-1">
          <mxGeometry x="530" y="600" width="40" height="30" as="geometry" />
        </mxCell>
        <mxCell id="DsSAlxJH9UJ9JPRe9rcv-137" value="No" style="text;html=1;align=center;verticalAlign=middle;resizable=0;points=[];autosize=1;strokeColor=none;fillColor=none;fontColor=#1A1A1A;" vertex="1" parent="WIyWlLk6GJQsqaUBKTNV-1">
          <mxGeometry x="380" y="600" width="40" height="30" as="geometry" />
        </mxCell>
        <mxCell id="DsSAlxJH9UJ9JPRe9rcv-138" value="No" style="text;html=1;align=center;verticalAlign=middle;resizable=0;points=[];autosize=1;strokeColor=none;fillColor=none;fontColor=#1A1A1A;" vertex="1" parent="WIyWlLk6GJQsqaUBKTNV-1">
          <mxGeometry x="530" y="400" width="40" height="30" as="geometry" />
        </mxCell>
        <mxCell id="DsSAlxJH9UJ9JPRe9rcv-139" value="No" style="text;html=1;align=center;verticalAlign=middle;resizable=0;points=[];autosize=1;strokeColor=none;fillColor=none;fontColor=#1A1A1A;" vertex="1" parent="WIyWlLk6GJQsqaUBKTNV-1">
          <mxGeometry x="380" y="400" width="40" height="30" as="geometry" />
        </mxCell>
      </root>
    </mxGraphModel>
  </diagram>
</mxfile>
